<?xml version="1.0" encoding="UTF-8" standalone="no"?>
<svg width="1900px" height="652px" viewBox="0 0 1900 652" version="1.1" xmlns="http://www.w3.org/2000/svg" xmlns:xlink="http://www.w3.org/1999/xlink" xmlns:sketch="http://www.bohemiancoding.com/sketch/ns">
    <title>Group copy</title>
    <description>Created with Sketch (http://www.bohemiancoding.com/sketch)</description>
    <defs></defs>
    <g id="Page-1" stroke="none" stroke-width="1" fill="none" fill-rule="evenodd" sketch:type="MSPage">
        <g id="Group-copy" sketch:type="MSLayerGroup" fill="#D8D8D8">
            <rect d="M0,326 L0,652 L1900,652 L1900,326 L0,326 Z M0,326" id="Rectangle-1" sketch:type="MSShapeGroup" x="0" y="326" width="1900" height="326"></rect>
            <rect d="M227,0 L227,326 L424,326 L424,0 L227,0 Z M227,0" id="Rectangle-1" sketch:type="MSShapeGroup" x="227" y="0" width="197" height="326"></rect>
            <rect d="M1481,118 L1481,326 L1678,326 L1678,118 L1481,118 Z M1481,118" id="Rectangle-1" sketch:type="MSShapeGroup" x="1481" y="118" width="197" height="208"></rect>
            <rect d="M85,118 L85,326 L282,326 L282,118 L85,118 Z M85,118" id="Rectangle-1-copy" sketch:type="MSShapeGroup" x="85" y="118" width="197" height="208"></rect>
            <rect d="M478,259 L478,326 L713,326 L713,259 L478,259 Z M478,259" id="Rectangle-1-copy-2" sketch:type="MSShapeGroup" x="478" y="259" width="235" height="67"></rect>
            <rect d="M950,43 L950,336 L1051,336 L1051,43 L950,43 Z M950,43" id="Rectangle-1" sketch:type="MSShapeGroup" x="950" y="43" width="101" height="293"></rect>
        </g>
    </g>
</svg>