<?xml version="1.0" encoding="UTF-8" standalone="no"?>
<svg width="1900px" height="815px" viewBox="0 0 1900 815" version="1.1" xmlns="http://www.w3.org/2000/svg" xmlns:xlink="http://www.w3.org/1999/xlink" xmlns:sketch="http://www.bohemiancoding.com/sketch/ns">
    <title>Group copy</title>
    <description>Created with Sketch (http://www.bohemiancoding.com/sketch)</description>
    <defs></defs>
    <g id="Page-1" stroke="none" stroke-width="1" fill="none" fill-rule="evenodd" sketch:type="MSPage">
        <g id="Group-copy-2" sketch:type="MSLayerGroup" fill="#D8D8D8">
            <rect d="M0,489 L0,815 L1900,815 L1900,489 L0,489 Z M0,489" id="Rectangle-1" sketch:type="MSShapeGroup" x="0" y="489" width="1900" height="326"></rect>
            <rect d="M1314,163 L1314,489 L1511,489 L1511,163 L1314,163 Z M1314,163" id="Rectangle-1" sketch:type="MSShapeGroup" x="1314" y="163" width="197" height="326"></rect>
            <rect d="M100,422 L100,489 L335,489 L335,422 L100,422 Z M100,422" id="Rectangle-1-copy-2" sketch:type="MSShapeGroup" x="100" y="422" width="235" height="67"></rect>
            <rect d="M569,0 L569,489 L804,489 L804,0 L569,0 Z M569,0" id="Rectangle-1-copy-3" sketch:type="MSShapeGroup" x="569" y="0" width="235" height="489"></rect>
            <rect d="M849,206 L849,499 L950,499 L950,206 L849,206 Z M849,206" id="Rectangle-1" sketch:type="MSShapeGroup" x="849" y="206" width="101" height="293"></rect>
        </g>
    </g>
</svg>