<?xml version="1.0" encoding="UTF-8" standalone="no"?>
<svg width="1900px" height="652px" viewBox="0 0 1900 652" version="1.1" xmlns="http://www.w3.org/2000/svg" xmlns:xlink="http://www.w3.org/1999/xlink" xmlns:sketch="http://www.bohemiancoding.com/sketch/ns">
    <title>Slice 1</title>
    <description>Created with Sketch (http://www.bohemiancoding.com/sketch)</description>
    <defs></defs>
    <g id="Page-1" stroke="none" stroke-width="1" fill="none" fill-rule="evenodd" sketch:type="MSPage">
        <g id="Group" sketch:type="MSLayerGroup" fill="#D8D8D8">
            <rect d="M0,326 L0,652 L1900,652 L1900,326 L0,326 Z M0,326" id="Rectangle-1" sketch:type="MSShapeGroup" x="0" y="326" width="1900" height="326"></rect>
            <rect d="M53,0 L53,326 L250,326 L250,0 L53,0 Z M53,0" id="Rectangle-1" sketch:type="MSShapeGroup" x="53" y="0" width="197" height="326"></rect>
            <rect d="M531,118 L531,326 L728,326 L728,118 L531,118 Z M531,118" id="Rectangle-1" sketch:type="MSShapeGroup" x="531" y="118" width="197" height="208"></rect>
            <rect d="M1128,118 L1128,326 L1325,326 L1325,118 L1128,118 Z M1128,118" id="Rectangle-1-copy" sketch:type="MSShapeGroup" x="1128" y="118" width="197" height="208"></rect>
            <rect d="M1562,259 L1562,326 L1797,326 L1797,259 L1562,259 Z M1562,259" id="Rectangle-1-copy-2" sketch:type="MSShapeGroup" x="1562" y="259" width="235" height="67"></rect>
            <rect d="M1383,43 L1383,336 L1484,336 L1484,43 L1383,43 Z M1383,43" id="Rectangle-1" sketch:type="MSShapeGroup" x="1383" y="43" width="101" height="293"></rect>
        </g>
    </g>
</svg>